# xmcd CD database file
#
# Track frame offsets:
#	150
#	8812
#	51602
#	109817
#	168616
#	237201
#
# Disc length: 3621 seconds
#
# Revision: 0
# Processed by: cddbd v1.5.1PL0 Copyright (c) Steve Scherf et al.
# Submitted via: CD2WAV32(JP) R3.22
#
DISCID=4c0e2306
DTITLE=放送劇団 アズ - 夏の精と冬の精の幻
DYEAR=2005
DGENRE=Other
TTITLE0=オープニング
TTITLE1=夏と冬のめぐり逢い
TTITLE2=下界へ
TTITLE3=夏の精と冬の精の幻
TTITLE4=幻は幻のままで
TTITLE5=CM
EXTD=
EXTT0=
EXTT1=
EXTT2=
EXTT3=
EXTT4=
EXTT5=
PLAYORDER=
